# xmcd CD database file
#
# Track frame offsets:
#	150
#	17755
#	31487
#	51430
#	74932
#	97162
#	114407
#	132362
#
# Disc length: 2004 seconds
#
# Revision: 2
# Processed by: cddbd v1.5PL3 Copyright (c) Steve Scherf et al.
# Submitted via: CDex 1.51
#
DISCID=7907d208
DTITLE=Marshall Tucker Band - Long Hard Ride
DYEAR=1976
DGENRE=Southern Rock
TTITLE0=Long Hard Ride
TTITLE1=Property Line
TTITLE2=Am I the Kind of Man
TTITLE3=Walkin' the Streets Alone
TTITLE4=Windy City Blues
TTITLE5=Holding on to You
TTITLE6=You Say You Love Me
TTITLE7=You Don't Live Forever
EXTD=YEAR: 1976
EXTT0=
EXTT1=
EXTT2=
EXTT3=
EXTT4=
EXTT5=
EXTT6=
EXTT7=
PLAYORDER=
